<svg id="Layer_1" data-name="Layer 1" xmlns="http://www.w3.org/2000/svg" viewBox="0 0 1080 1080"><defs><style>.cls-1{fill:#323846;}.cls-2{fill:#fff;}</style></defs><rect class="cls-1" x="180.54" y="644.53" width="364.18" height="97.37" rx="4.39"/><path class="cls-2" d="M209.75,723.24V665.83h26.08a36.37,36.37,0,0,1,16.48,3.57,27.24,27.24,0,0,1,11.15,10,30.58,30.58,0,0,1,0,30.31,27.06,27.06,0,0,1-11.15,10,36.37,36.37,0,0,1-16.48,3.57ZM223,712.33h12.14a21.45,21.45,0,0,0,10-2.17A15.77,15.77,0,0,0,251.7,704a20.35,20.35,0,0,0,0-18.91,15.87,15.87,0,0,0-6.57-6.15,21.58,21.58,0,0,0-10-2.17H223Z"/><path class="cls-2" d="M290.69,712.58h31.25v10.66H277.49V665.83h43.38v10.66H290.69Zm-1-23.62h27.63v10.33H289.71Z"/><path class="cls-2" d="M332.52,723.24V665.83h24.84a32.43,32.43,0,0,1,13.29,2.5,19.42,19.42,0,0,1,8.61,7.18,20.05,20.05,0,0,1,3,11.15,19.69,19.69,0,0,1-3,11,19.27,19.27,0,0,1-8.61,7.1,32.78,32.78,0,0,1-13.29,2.46H339.9l5.9-5.82v21.81ZM345.8,702.9l-5.9-6.23h16.73q6.15,0,9.18-2.67a10.43,10.43,0,0,0,0-14.72q-3-2.62-9.18-2.62H339.9l5.9-6.32ZM369,723.24l-14.35-20.83h14.19l14.51,20.83Z"/><path class="cls-2" d="M392.79,723.24V665.83h11l24.44,40.52H422.4l24-40.52h10.91l.16,57.41H445l-.08-38.3h2.3l-19.19,32.23h-6l-19.6-32.23h2.79v38.3Z"/><path class="cls-2" d="M463.57,723.24l25.58-57.41h13.13L528,723.24H514l-21-50.68h5.25l-21.08,50.68Zm12.79-12.3,3.53-10.09h29.52L513,710.94Z"/><path class="cls-1" d="M557.14,723.24V665.83h11L602,707.16h-5.33V665.83h13.12v57.41H598.88l-34-41.33h5.33v41.33Z"/><path class="cls-1" d="M636.61,712.58h31.25v10.66H623.41V665.83h43.38v10.66H636.61Zm-1-23.62h27.63v10.33H635.63Z"/><path class="cls-1" d="M705.91,724.22a34.31,34.31,0,0,1-12.34-2.17,29,29,0,0,1-9.89-6.19,28.73,28.73,0,0,1-6.52-9.43,31.53,31.53,0,0,1,0-23.79,28.64,28.64,0,0,1,6.56-9.43,29.68,29.68,0,0,1,9.89-6.19,36.48,36.48,0,0,1,25.87.41A26.26,26.26,0,0,1,729.61,675l-8.53,7.87a20,20,0,0,0-6.56-5,18.44,18.44,0,0,0-7.87-1.69,20,20,0,0,0-7.38,1.32,16.61,16.61,0,0,0-5.83,3.77,17.19,17.19,0,0,0-3.81,5.82,21.31,21.31,0,0,0,0,14.93,17.19,17.19,0,0,0,3.81,5.82,16.78,16.78,0,0,0,5.83,3.78,20.22,20.22,0,0,0,7.38,1.31,18.29,18.29,0,0,0,7.87-1.69,19.39,19.39,0,0,0,6.56-5.12l8.53,7.87a26.66,26.66,0,0,1-10.13,7.63A33.66,33.66,0,0,1,705.91,724.22Z"/><path class="cls-1" d="M749.87,723.24V676.66H731.5V665.83h50v10.83H763.15v46.58Z"/><path class="cls-1" d="M778.24,723.24l25.59-57.41H817l25.67,57.41H828.68l-21-50.68h5.24l-21.07,50.68Zm12.8-12.3,3.52-10.09h29.53l3.61,10.09Z"/><path class="cls-1" d="M848.61,723.24V665.83h24.85a32.34,32.34,0,0,1,13.28,2.5,19.51,19.51,0,0,1,8.62,7.18,20,20,0,0,1,3,11.15,19.69,19.69,0,0,1-3,11,19.35,19.35,0,0,1-8.62,7.1,32.69,32.69,0,0,1-13.28,2.46H856l5.9-5.82v21.81Zm13.28-20.34-5.9-6.23h16.73q6.15,0,9.19-2.67a10.45,10.45,0,0,0,0-14.72q-3-2.62-9.19-2.62H856l5.9-6.32Zm23.21,20.34-14.35-20.83h14.19l14.52,20.83Z"/><path class="cls-1" d="M416.14,338.09H543.59A120.27,120.27,0,0,1,663.86,458.37v0A120.27,120.27,0,0,1,543.59,578.64H416.14a0,0,0,0,1,0,0V338.09A0,0,0,0,1,416.14,338.09Z"/><path class="cls-2" d="M449,462.92c-1,0-2,0-3-.05l-5-.16-.17-5c-.87-26.87,9.9-53.55,29.57-73.21s46.38-30.36,73.2-29.57l5,.17.16,5c.88,26.87-9.9,53.55-29.56,73.21h0C500.22,452.23,474.8,462.92,449,462.92Zm89-97.27a90.5,90.5,0,0,0-86.46,86.47,89.3,89.3,0,0,0,60-26.42h0A89.3,89.3,0,0,0,537.94,365.65Z"/><path class="cls-2" d="M540.45,561.89c-25.82,0-51.24-10.69-70.16-29.61h0c-19.67-19.66-30.44-46.34-29.57-73.21l.17-5,5-.16c26.88-.93,53.55,9.9,73.21,29.56s30.44,46.34,29.56,73.2l-.16,5-5,.16C542.48,561.87,541.47,561.89,540.45,561.89ZM477.9,524.67c16.29,16.28,37.93,25.75,60,26.41a90.5,90.5,0,0,0-86.46-86.46,89.3,89.3,0,0,0,26.42,60Z"/><path class="cls-2" d="M546.25,534.57c-2.29,0-4.61-.11-6.91-.34l1-10.71a63.86,63.86,0,0,0,33.24-5.72,65.55,65.55,0,0,0,33.85-36.29c-11.16-8.41-22.57-14.61-33.19-18l-16-5.13,16-5.13c10.61-3.4,22-9.6,33.19-18a65.55,65.55,0,0,0-33.83-36.29,64.25,64.25,0,0,0-33.22-5.72l-.52,0,0-5.57-.51-5.17a68.16,68.16,0,0,1,6.88-.34,75.29,75.29,0,0,1,31.9,7A76.31,76.31,0,0,1,619,435.51l1.11,3.54-2.91,2.29a141.63,141.63,0,0,1-26.77,17,141.5,141.5,0,0,1,26.77,17l2.91,2.3L619,481.23a76.33,76.33,0,0,1-40.82,46.35A75.14,75.14,0,0,1,546.25,534.57Z"/><rect class="cls-2" x="460.16" y="452.98" width="115.77" height="10.77"/><path class="cls-2" d="M470.28,463.71c-.15-1.74-.23-3.52-.23-5.34s.08-3.6.23-5.34L481,454c-.12,1.43-.19,2.9-.19,4.4s.07,3,.19,4.4Z"/></svg>